<?xml version="1.0" encoding="UTF-8"?>
<svg id="_图层_1" xmlns="http://www.w3.org/2000/svg" version="1.1" viewBox="0 0 983.8 550.5">
  <!-- Generator: Adobe Illustrator 29.1.0, SVG Export Plug-In . SVG Version: 2.1.0 Build 142)  -->
  <defs>
    <style>
      .st0 {
        fill: #fff;
      }

      .st1 {
        isolation: isolate;
      }
    </style>
  </defs>
  <rect x="-1.8" width="988.1" height="552.1"/>
  <g class="st1">
    <g class="st1">
      <path class="st0" d="M28.9,0h340.6v12.3c-76.7,4.4-105.9,8.8-105.9,21.2s7.7,15,21.5,26.5c53.7,50.3,125.8,105.8,201,164.9,90.5-73.2,191.8-157,191.8-183.4s-30.7-23.8-105.9-29.1V0h349.8v12.3c-118.1,7.9-142.7,25.6-213.3,75-21.5,15.9-72.1,53.8-202.5,157,93.6,76.7,193.3,157,259.3,209,69,56.4,112,81.1,221,87.3v11.5h-354.4v-11.5c61.4-4.4,95.1-10.6,95.1-26.5s-4.6-12.3-12.3-21.2c-43-38.8-159.6-133.2-248.6-201.9-93.6,80.2-158,143.7-213.3,197.5-9.2,10.6-15.3,18.5-15.3,24.7,0,15.9,29.2,22.9,101.3,26.5v12.3H-1.8v-12.3c90.5-6.2,130.4-23.8,176.5-52.9,15.3-7.1,82.9-60,268.5-216-87.5-74.1-171.9-145.5-208.7-172C157.8,35.3,147,20.3,28.9,12.3V0Z"/>
    </g>
  </g>
  <g class="st1">
    <g class="st1">
      <path class="st0" d="M811.3,133.6c0,40,19.2,50.4,41.6,50.4s35.2-8,52-24.8v-88c0-23.6-5.6-25.2-20-28l-15.2-2.4v-4.4c17.2-.4,44.4-4.4,54.4-7.2v130.4c0,20,4.4,22,20,23.2l12,.8v5.6c-16.4,2-33.6,8-49.2,13.6l-2-2v-30.8c-10.4,7.6-20.4,16.4-34.4,23.6-11.6,6.8-20,8.8-30.4,8.8-24,0-48-12.4-48-56.8v-74c0-23.6-6-25.6-14.4-28l-12.8-2.8v-4c9.2-.8,38.8-5.6,47.6-7.6-1.2,8-1.2,22-1.2,52v52.4h0Z"/>
    </g>
  </g>
</svg>